<mxfile host="app.diagrams.net" modified="2022-10-11T08:10:55.770Z" agent="5.0 (Macintosh; Intel Mac OS X 10_15_7) AppleWebKit/537.36 (KHTML, like Gecko) Chrome/104.0.0.0 Safari/537.36" etag="vGggO1mFI8wOV0LYv396" version="20.3.0" type="github">
  <diagram id="q9kdmSjCggKA0HIjSDvM" name="第 1 页">
    <mxGraphModel dx="850" dy="455" grid="1" gridSize="10" guides="1" tooltips="1" connect="1" arrows="1" fold="1" page="1" pageScale="1" pageWidth="827" pageHeight="1169" math="0" shadow="0">
      <root>
        <mxCell id="0" />
        <mxCell id="1" parent="0" />
        <mxCell id="Ytk9a4cfi9C-d5oDtsvV-21" value="" style="edgeStyle=orthogonalEdgeStyle;rounded=0;orthogonalLoop=1;jettySize=auto;html=1;endArrow=none;endFill=0;" edge="1" parent="1" source="Ytk9a4cfi9C-d5oDtsvV-1" target="Ytk9a4cfi9C-d5oDtsvV-20">
          <mxGeometry relative="1" as="geometry" />
        </mxCell>
        <mxCell id="Ytk9a4cfi9C-d5oDtsvV-42" value="" style="edgeStyle=none;rounded=0;orthogonalLoop=1;jettySize=auto;html=1;endArrow=none;endFill=0;" edge="1" parent="1" source="Ytk9a4cfi9C-d5oDtsvV-1" target="Ytk9a4cfi9C-d5oDtsvV-41">
          <mxGeometry relative="1" as="geometry" />
        </mxCell>
        <mxCell id="Ytk9a4cfi9C-d5oDtsvV-1" value="用户" style="whiteSpace=wrap;html=1;align=center;" vertex="1" parent="1">
          <mxGeometry x="410" y="230" width="60" height="30" as="geometry" />
        </mxCell>
        <mxCell id="Ytk9a4cfi9C-d5oDtsvV-31" value="" style="edgeStyle=none;rounded=0;orthogonalLoop=1;jettySize=auto;html=1;endArrow=none;endFill=0;" edge="1" parent="1" source="Ytk9a4cfi9C-d5oDtsvV-2" target="Ytk9a4cfi9C-d5oDtsvV-29">
          <mxGeometry relative="1" as="geometry" />
        </mxCell>
        <mxCell id="Ytk9a4cfi9C-d5oDtsvV-2" value="角色" style="whiteSpace=wrap;html=1;align=center;" vertex="1" parent="1">
          <mxGeometry x="620" y="230" width="60" height="30" as="geometry" />
        </mxCell>
        <mxCell id="Ytk9a4cfi9C-d5oDtsvV-38" value="" style="edgeStyle=none;rounded=0;orthogonalLoop=1;jettySize=auto;html=1;endArrow=block;endFill=1;exitX=0.5;exitY=1;exitDx=0;exitDy=0;" edge="1" parent="1" source="Ytk9a4cfi9C-d5oDtsvV-3" target="Ytk9a4cfi9C-d5oDtsvV-35">
          <mxGeometry relative="1" as="geometry" />
        </mxCell>
        <mxCell id="Ytk9a4cfi9C-d5oDtsvV-3" value="权限" style="whiteSpace=wrap;html=1;align=center;" vertex="1" parent="1">
          <mxGeometry x="620" y="350" width="60" height="30" as="geometry" />
        </mxCell>
        <mxCell id="Ytk9a4cfi9C-d5oDtsvV-4" value="用户名称" style="ellipse;whiteSpace=wrap;html=1;align=center;" vertex="1" parent="1">
          <mxGeometry x="470" y="110" width="80" height="30" as="geometry" />
        </mxCell>
        <mxCell id="Ytk9a4cfi9C-d5oDtsvV-5" value="用户ID" style="ellipse;whiteSpace=wrap;html=1;align=center;fontStyle=4;" vertex="1" parent="1">
          <mxGeometry x="534" y="140" width="86" height="30" as="geometry" />
        </mxCell>
        <mxCell id="Ytk9a4cfi9C-d5oDtsvV-6" value="登录密码" style="ellipse;whiteSpace=wrap;html=1;align=center;" vertex="1" parent="1">
          <mxGeometry x="340" y="110" width="80" height="30" as="geometry" />
        </mxCell>
        <mxCell id="Ytk9a4cfi9C-d5oDtsvV-7" value="手机号码" style="ellipse;whiteSpace=wrap;html=1;align=center;" vertex="1" parent="1">
          <mxGeometry x="290" y="140" width="80" height="30" as="geometry" />
        </mxCell>
        <mxCell id="Ytk9a4cfi9C-d5oDtsvV-8" value="邮箱" style="ellipse;whiteSpace=wrap;html=1;align=center;" vertex="1" parent="1">
          <mxGeometry x="260" y="180" width="80" height="30" as="geometry" />
        </mxCell>
        <mxCell id="Ytk9a4cfi9C-d5oDtsvV-9" value="所在部门" style="ellipse;whiteSpace=wrap;html=1;align=center;" vertex="1" parent="1">
          <mxGeometry x="400" y="80" width="80" height="30" as="geometry" />
        </mxCell>
        <mxCell id="Ytk9a4cfi9C-d5oDtsvV-10" value="员工编号" style="ellipse;whiteSpace=wrap;html=1;align=center;" vertex="1" parent="1">
          <mxGeometry x="560" y="180" width="80" height="30" as="geometry" />
        </mxCell>
        <mxCell id="Ytk9a4cfi9C-d5oDtsvV-16" style="edgeStyle=orthogonalEdgeStyle;rounded=0;orthogonalLoop=1;jettySize=auto;html=1;exitX=0.5;exitY=1;exitDx=0;exitDy=0;" edge="1" parent="1" source="Ytk9a4cfi9C-d5oDtsvV-8" target="Ytk9a4cfi9C-d5oDtsvV-8">
          <mxGeometry relative="1" as="geometry" />
        </mxCell>
        <mxCell id="Ytk9a4cfi9C-d5oDtsvV-22" value="" style="edgeStyle=orthogonalEdgeStyle;rounded=0;orthogonalLoop=1;jettySize=auto;html=1;endArrow=none;endFill=0;" edge="1" parent="1" source="Ytk9a4cfi9C-d5oDtsvV-20" target="Ytk9a4cfi9C-d5oDtsvV-2">
          <mxGeometry relative="1" as="geometry" />
        </mxCell>
        <mxCell id="Ytk9a4cfi9C-d5oDtsvV-20" value="担当" style="shape=rhombus;perimeter=rhombusPerimeter;whiteSpace=wrap;html=1;align=center;" vertex="1" parent="1">
          <mxGeometry x="500" y="225" width="90" height="40" as="geometry" />
        </mxCell>
        <mxCell id="Ytk9a4cfi9C-d5oDtsvV-23" value="角色ID" style="ellipse;whiteSpace=wrap;html=1;align=center;fontStyle=4;" vertex="1" parent="1">
          <mxGeometry x="680" y="180" width="86" height="30" as="geometry" />
        </mxCell>
        <mxCell id="Ytk9a4cfi9C-d5oDtsvV-24" value="角色描述" style="ellipse;whiteSpace=wrap;html=1;align=center;" vertex="1" parent="1">
          <mxGeometry x="730" y="230" width="80" height="30" as="geometry" />
        </mxCell>
        <mxCell id="Ytk9a4cfi9C-d5oDtsvV-25" value="角色名称" style="ellipse;whiteSpace=wrap;html=1;align=center;" vertex="1" parent="1">
          <mxGeometry x="710" y="270" width="80" height="30" as="geometry" />
        </mxCell>
        <mxCell id="Ytk9a4cfi9C-d5oDtsvV-32" value="" style="edgeStyle=none;rounded=0;orthogonalLoop=1;jettySize=auto;html=1;endArrow=none;endFill=0;" edge="1" parent="1" source="Ytk9a4cfi9C-d5oDtsvV-29" target="Ytk9a4cfi9C-d5oDtsvV-3">
          <mxGeometry relative="1" as="geometry" />
        </mxCell>
        <mxCell id="Ytk9a4cfi9C-d5oDtsvV-29" value="拥有" style="shape=rhombus;perimeter=rhombusPerimeter;whiteSpace=wrap;html=1;align=center;" vertex="1" parent="1">
          <mxGeometry x="605" y="290" width="90" height="40" as="geometry" />
        </mxCell>
        <mxCell id="Ytk9a4cfi9C-d5oDtsvV-33" value="权限ID" style="ellipse;whiteSpace=wrap;html=1;align=center;fontStyle=4;" vertex="1" parent="1">
          <mxGeometry x="554" y="400" width="86" height="30" as="geometry" />
        </mxCell>
        <mxCell id="Ytk9a4cfi9C-d5oDtsvV-35" value="权限描述" style="ellipse;whiteSpace=wrap;html=1;align=center;" vertex="1" parent="1">
          <mxGeometry x="610" y="430" width="80" height="30" as="geometry" />
        </mxCell>
        <mxCell id="Ytk9a4cfi9C-d5oDtsvV-36" value="权限名称" style="ellipse;whiteSpace=wrap;html=1;align=center;" vertex="1" parent="1">
          <mxGeometry x="683" y="400" width="80" height="30" as="geometry" />
        </mxCell>
        <mxCell id="Ytk9a4cfi9C-d5oDtsvV-39" value="" style="endArrow=classic;html=1;rounded=0;exitX=0.5;exitY=1;exitDx=0;exitDy=0;entryX=0.5;entryY=0;entryDx=0;entryDy=0;" edge="1" parent="1" source="Ytk9a4cfi9C-d5oDtsvV-3" target="Ytk9a4cfi9C-d5oDtsvV-33">
          <mxGeometry width="50" height="50" relative="1" as="geometry">
            <mxPoint x="390" y="340" as="sourcePoint" />
            <mxPoint x="440" y="290" as="targetPoint" />
          </mxGeometry>
        </mxCell>
        <mxCell id="Ytk9a4cfi9C-d5oDtsvV-40" value="" style="endArrow=classic;html=1;rounded=0;exitX=0.5;exitY=1;exitDx=0;exitDy=0;entryX=0.5;entryY=0;entryDx=0;entryDy=0;" edge="1" parent="1" source="Ytk9a4cfi9C-d5oDtsvV-3" target="Ytk9a4cfi9C-d5oDtsvV-36">
          <mxGeometry width="50" height="50" relative="1" as="geometry">
            <mxPoint x="390" y="340" as="sourcePoint" />
            <mxPoint x="440" y="290" as="targetPoint" />
          </mxGeometry>
        </mxCell>
        <mxCell id="Ytk9a4cfi9C-d5oDtsvV-45" value="" style="edgeStyle=none;rounded=0;orthogonalLoop=1;jettySize=auto;html=1;endArrow=none;endFill=0;" edge="1" parent="1" source="Ytk9a4cfi9C-d5oDtsvV-41" target="Ytk9a4cfi9C-d5oDtsvV-44">
          <mxGeometry relative="1" as="geometry" />
        </mxCell>
        <mxCell id="Ytk9a4cfi9C-d5oDtsvV-41" value="产出" style="shape=rhombus;perimeter=rhombusPerimeter;whiteSpace=wrap;html=1;align=center;" vertex="1" parent="1">
          <mxGeometry x="395" y="285" width="90" height="40" as="geometry" />
        </mxCell>
        <mxCell id="Ytk9a4cfi9C-d5oDtsvV-55" value="" style="edgeStyle=none;rounded=0;orthogonalLoop=1;jettySize=auto;html=1;endArrow=none;endFill=0;" edge="1" parent="1" source="Ytk9a4cfi9C-d5oDtsvV-43" target="Ytk9a4cfi9C-d5oDtsvV-1">
          <mxGeometry relative="1" as="geometry" />
        </mxCell>
        <mxCell id="Ytk9a4cfi9C-d5oDtsvV-43" value="搜索" style="shape=rhombus;perimeter=rhombusPerimeter;whiteSpace=wrap;html=1;align=center;" vertex="1" parent="1">
          <mxGeometry x="280" y="225" width="90" height="40" as="geometry" />
        </mxCell>
        <mxCell id="Ytk9a4cfi9C-d5oDtsvV-52" value="" style="edgeStyle=none;rounded=0;orthogonalLoop=1;jettySize=auto;html=1;endArrow=block;endFill=1;exitX=0.5;exitY=1;exitDx=0;exitDy=0;" edge="1" parent="1" source="Ytk9a4cfi9C-d5oDtsvV-44" target="Ytk9a4cfi9C-d5oDtsvV-51">
          <mxGeometry relative="1" as="geometry" />
        </mxCell>
        <mxCell id="Ytk9a4cfi9C-d5oDtsvV-44" value="用户行为日志" style="whiteSpace=wrap;html=1;align=center;" vertex="1" parent="1">
          <mxGeometry x="410" y="350" width="60" height="30" as="geometry" />
        </mxCell>
        <mxCell id="Ytk9a4cfi9C-d5oDtsvV-46" value="行为ID" style="ellipse;whiteSpace=wrap;html=1;align=center;fontStyle=4;" vertex="1" parent="1">
          <mxGeometry x="314" y="400" width="86" height="30" as="geometry" />
        </mxCell>
        <mxCell id="Ytk9a4cfi9C-d5oDtsvV-47" value="" style="endArrow=classic;html=1;rounded=0;exitX=0.5;exitY=1;exitDx=0;exitDy=0;entryX=0.5;entryY=0;entryDx=0;entryDy=0;" edge="1" parent="1" source="Ytk9a4cfi9C-d5oDtsvV-44" target="Ytk9a4cfi9C-d5oDtsvV-46">
          <mxGeometry width="50" height="50" relative="1" as="geometry">
            <mxPoint x="390" y="350" as="sourcePoint" />
            <mxPoint x="440" y="300" as="targetPoint" />
          </mxGeometry>
        </mxCell>
        <mxCell id="Ytk9a4cfi9C-d5oDtsvV-50" value="动作" style="ellipse;whiteSpace=wrap;html=1;align=center;" vertex="1" parent="1">
          <mxGeometry x="390" y="420" width="80" height="30" as="geometry" />
        </mxCell>
        <mxCell id="Ytk9a4cfi9C-d5oDtsvV-51" value="内容" style="ellipse;whiteSpace=wrap;html=1;align=center;" vertex="1" parent="1">
          <mxGeometry x="460" y="400" width="80" height="30" as="geometry" />
        </mxCell>
        <mxCell id="Ytk9a4cfi9C-d5oDtsvV-53" value="" style="endArrow=classic;html=1;rounded=0;exitX=0.5;exitY=1;exitDx=0;exitDy=0;entryX=0.5;entryY=0;entryDx=0;entryDy=0;" edge="1" parent="1" source="Ytk9a4cfi9C-d5oDtsvV-44" target="Ytk9a4cfi9C-d5oDtsvV-50">
          <mxGeometry width="50" height="50" relative="1" as="geometry">
            <mxPoint x="390" y="350" as="sourcePoint" />
            <mxPoint x="440" y="300" as="targetPoint" />
          </mxGeometry>
        </mxCell>
        <mxCell id="Ytk9a4cfi9C-d5oDtsvV-57" value="" style="edgeStyle=none;rounded=0;orthogonalLoop=1;jettySize=auto;html=1;endArrow=none;endFill=0;" edge="1" parent="1" source="Ytk9a4cfi9C-d5oDtsvV-56" target="Ytk9a4cfi9C-d5oDtsvV-43">
          <mxGeometry relative="1" as="geometry" />
        </mxCell>
        <mxCell id="Ytk9a4cfi9C-d5oDtsvV-56" value="搜索历史记录" style="whiteSpace=wrap;html=1;align=center;" vertex="1" parent="1">
          <mxGeometry x="180" y="230" width="60" height="30" as="geometry" />
        </mxCell>
        <mxCell id="Ytk9a4cfi9C-d5oDtsvV-58" value="记录ID" style="ellipse;whiteSpace=wrap;html=1;align=center;fontStyle=4;" vertex="1" parent="1">
          <mxGeometry x="130" y="150" width="86" height="30" as="geometry" />
        </mxCell>
        <mxCell id="Ytk9a4cfi9C-d5oDtsvV-59" value="用户请求IP" style="ellipse;whiteSpace=wrap;html=1;align=center;" vertex="1" parent="1">
          <mxGeometry x="60" y="170" width="80" height="30" as="geometry" />
        </mxCell>
        <mxCell id="Ytk9a4cfi9C-d5oDtsvV-60" value="操作行为" style="ellipse;whiteSpace=wrap;html=1;align=center;" vertex="1" parent="1">
          <mxGeometry x="20" y="210" width="80" height="30" as="geometry" />
        </mxCell>
        <mxCell id="Ytk9a4cfi9C-d5oDtsvV-61" value="用户搜索词" style="ellipse;whiteSpace=wrap;html=1;align=center;" vertex="1" parent="1">
          <mxGeometry x="30" y="250" width="80" height="30" as="geometry" />
        </mxCell>
        <mxCell id="Ytk9a4cfi9C-d5oDtsvV-62" value="操作结果" style="ellipse;whiteSpace=wrap;html=1;align=center;" vertex="1" parent="1">
          <mxGeometry x="50" y="290" width="80" height="30" as="geometry" />
        </mxCell>
        <mxCell id="Ytk9a4cfi9C-d5oDtsvV-63" value="请求时间" style="ellipse;whiteSpace=wrap;html=1;align=center;" vertex="1" parent="1">
          <mxGeometry x="120" y="315" width="80" height="30" as="geometry" />
        </mxCell>
        <mxCell id="Ytk9a4cfi9C-d5oDtsvV-66" value="" style="endArrow=classic;html=1;rounded=0;exitX=0;exitY=0.5;exitDx=0;exitDy=0;entryX=1;entryY=1;entryDx=0;entryDy=0;" edge="1" parent="1" source="Ytk9a4cfi9C-d5oDtsvV-56" target="Ytk9a4cfi9C-d5oDtsvV-59">
          <mxGeometry width="50" height="50" relative="1" as="geometry">
            <mxPoint x="390" y="340" as="sourcePoint" />
            <mxPoint x="440" y="290" as="targetPoint" />
          </mxGeometry>
        </mxCell>
        <mxCell id="Ytk9a4cfi9C-d5oDtsvV-67" value="" style="endArrow=classic;html=1;rounded=0;exitX=0;exitY=0.5;exitDx=0;exitDy=0;entryX=0.5;entryY=1;entryDx=0;entryDy=0;" edge="1" parent="1" source="Ytk9a4cfi9C-d5oDtsvV-56" target="Ytk9a4cfi9C-d5oDtsvV-58">
          <mxGeometry width="50" height="50" relative="1" as="geometry">
            <mxPoint x="390" y="340" as="sourcePoint" />
            <mxPoint x="440" y="290" as="targetPoint" />
          </mxGeometry>
        </mxCell>
        <mxCell id="Ytk9a4cfi9C-d5oDtsvV-68" value="" style="endArrow=classic;html=1;rounded=0;exitX=0;exitY=0.5;exitDx=0;exitDy=0;entryX=1;entryY=0.5;entryDx=0;entryDy=0;" edge="1" parent="1" source="Ytk9a4cfi9C-d5oDtsvV-56" target="Ytk9a4cfi9C-d5oDtsvV-60">
          <mxGeometry width="50" height="50" relative="1" as="geometry">
            <mxPoint x="390" y="340" as="sourcePoint" />
            <mxPoint x="440" y="290" as="targetPoint" />
          </mxGeometry>
        </mxCell>
        <mxCell id="Ytk9a4cfi9C-d5oDtsvV-69" value="" style="endArrow=classic;html=1;rounded=0;exitX=0;exitY=0.5;exitDx=0;exitDy=0;entryX=1;entryY=0;entryDx=0;entryDy=0;" edge="1" parent="1" source="Ytk9a4cfi9C-d5oDtsvV-56" target="Ytk9a4cfi9C-d5oDtsvV-61">
          <mxGeometry width="50" height="50" relative="1" as="geometry">
            <mxPoint x="390" y="340" as="sourcePoint" />
            <mxPoint x="440" y="290" as="targetPoint" />
          </mxGeometry>
        </mxCell>
        <mxCell id="Ytk9a4cfi9C-d5oDtsvV-70" value="" style="endArrow=classic;html=1;rounded=0;exitX=0;exitY=0.5;exitDx=0;exitDy=0;entryX=1;entryY=0;entryDx=0;entryDy=0;" edge="1" parent="1" source="Ytk9a4cfi9C-d5oDtsvV-56" target="Ytk9a4cfi9C-d5oDtsvV-62">
          <mxGeometry width="50" height="50" relative="1" as="geometry">
            <mxPoint x="390" y="340" as="sourcePoint" />
            <mxPoint x="440" y="290" as="targetPoint" />
          </mxGeometry>
        </mxCell>
        <mxCell id="Ytk9a4cfi9C-d5oDtsvV-71" value="" style="endArrow=classic;html=1;rounded=0;exitX=0;exitY=0.5;exitDx=0;exitDy=0;entryX=0.5;entryY=0;entryDx=0;entryDy=0;" edge="1" parent="1" source="Ytk9a4cfi9C-d5oDtsvV-56" target="Ytk9a4cfi9C-d5oDtsvV-63">
          <mxGeometry width="50" height="50" relative="1" as="geometry">
            <mxPoint x="390" y="340" as="sourcePoint" />
            <mxPoint x="440" y="290" as="targetPoint" />
          </mxGeometry>
        </mxCell>
        <mxCell id="Ytk9a4cfi9C-d5oDtsvV-73" value="" style="endArrow=classic;html=1;rounded=0;exitX=1;exitY=0.5;exitDx=0;exitDy=0;entryX=0;entryY=0.5;entryDx=0;entryDy=0;" edge="1" parent="1" source="Ytk9a4cfi9C-d5oDtsvV-2" target="Ytk9a4cfi9C-d5oDtsvV-24">
          <mxGeometry width="50" height="50" relative="1" as="geometry">
            <mxPoint x="390" y="290" as="sourcePoint" />
            <mxPoint x="440" y="240" as="targetPoint" />
          </mxGeometry>
        </mxCell>
        <mxCell id="Ytk9a4cfi9C-d5oDtsvV-74" value="" style="endArrow=classic;html=1;rounded=0;exitX=1;exitY=0.5;exitDx=0;exitDy=0;entryX=0;entryY=0;entryDx=0;entryDy=0;" edge="1" parent="1" source="Ytk9a4cfi9C-d5oDtsvV-2" target="Ytk9a4cfi9C-d5oDtsvV-25">
          <mxGeometry width="50" height="50" relative="1" as="geometry">
            <mxPoint x="390" y="290" as="sourcePoint" />
            <mxPoint x="440" y="240" as="targetPoint" />
          </mxGeometry>
        </mxCell>
        <mxCell id="Ytk9a4cfi9C-d5oDtsvV-75" value="" style="endArrow=classic;html=1;rounded=0;exitX=1;exitY=0.5;exitDx=0;exitDy=0;entryX=0.5;entryY=1;entryDx=0;entryDy=0;" edge="1" parent="1" source="Ytk9a4cfi9C-d5oDtsvV-2" target="Ytk9a4cfi9C-d5oDtsvV-23">
          <mxGeometry width="50" height="50" relative="1" as="geometry">
            <mxPoint x="390" y="290" as="sourcePoint" />
            <mxPoint x="440" y="240" as="targetPoint" />
          </mxGeometry>
        </mxCell>
        <mxCell id="Ytk9a4cfi9C-d5oDtsvV-77" value="" style="endArrow=classic;html=1;rounded=0;exitX=0.5;exitY=0;exitDx=0;exitDy=0;entryX=0.5;entryY=1;entryDx=0;entryDy=0;" edge="1" parent="1" source="Ytk9a4cfi9C-d5oDtsvV-1" target="Ytk9a4cfi9C-d5oDtsvV-9">
          <mxGeometry width="50" height="50" relative="1" as="geometry">
            <mxPoint x="390" y="300" as="sourcePoint" />
            <mxPoint x="440" y="250" as="targetPoint" />
          </mxGeometry>
        </mxCell>
        <mxCell id="Ytk9a4cfi9C-d5oDtsvV-78" value="" style="endArrow=classic;html=1;rounded=0;exitX=0.5;exitY=0;exitDx=0;exitDy=0;entryX=0.5;entryY=1;entryDx=0;entryDy=0;" edge="1" parent="1" source="Ytk9a4cfi9C-d5oDtsvV-1" target="Ytk9a4cfi9C-d5oDtsvV-4">
          <mxGeometry width="50" height="50" relative="1" as="geometry">
            <mxPoint x="390" y="300" as="sourcePoint" />
            <mxPoint x="440" y="250" as="targetPoint" />
          </mxGeometry>
        </mxCell>
        <mxCell id="Ytk9a4cfi9C-d5oDtsvV-79" value="" style="endArrow=classic;html=1;rounded=0;exitX=0.5;exitY=0;exitDx=0;exitDy=0;entryX=0;entryY=1;entryDx=0;entryDy=0;" edge="1" parent="1" source="Ytk9a4cfi9C-d5oDtsvV-1" target="Ytk9a4cfi9C-d5oDtsvV-5">
          <mxGeometry width="50" height="50" relative="1" as="geometry">
            <mxPoint x="390" y="300" as="sourcePoint" />
            <mxPoint x="440" y="250" as="targetPoint" />
          </mxGeometry>
        </mxCell>
        <mxCell id="Ytk9a4cfi9C-d5oDtsvV-80" value="" style="endArrow=classic;html=1;rounded=0;exitX=0.5;exitY=0;exitDx=0;exitDy=0;entryX=0;entryY=0.5;entryDx=0;entryDy=0;" edge="1" parent="1" source="Ytk9a4cfi9C-d5oDtsvV-1" target="Ytk9a4cfi9C-d5oDtsvV-10">
          <mxGeometry width="50" height="50" relative="1" as="geometry">
            <mxPoint x="390" y="300" as="sourcePoint" />
            <mxPoint x="440" y="250" as="targetPoint" />
          </mxGeometry>
        </mxCell>
        <mxCell id="Ytk9a4cfi9C-d5oDtsvV-81" value="" style="endArrow=classic;html=1;rounded=0;exitX=0.5;exitY=0;exitDx=0;exitDy=0;entryX=1;entryY=1;entryDx=0;entryDy=0;" edge="1" parent="1" source="Ytk9a4cfi9C-d5oDtsvV-1" target="Ytk9a4cfi9C-d5oDtsvV-8">
          <mxGeometry width="50" height="50" relative="1" as="geometry">
            <mxPoint x="390" y="300" as="sourcePoint" />
            <mxPoint x="440" y="250" as="targetPoint" />
          </mxGeometry>
        </mxCell>
        <mxCell id="Ytk9a4cfi9C-d5oDtsvV-82" value="" style="endArrow=classic;html=1;rounded=0;exitX=0.5;exitY=0;exitDx=0;exitDy=0;entryX=1;entryY=1;entryDx=0;entryDy=0;" edge="1" parent="1" source="Ytk9a4cfi9C-d5oDtsvV-1" target="Ytk9a4cfi9C-d5oDtsvV-7">
          <mxGeometry width="50" height="50" relative="1" as="geometry">
            <mxPoint x="390" y="300" as="sourcePoint" />
            <mxPoint x="440" y="250" as="targetPoint" />
          </mxGeometry>
        </mxCell>
        <mxCell id="Ytk9a4cfi9C-d5oDtsvV-83" value="" style="endArrow=classic;html=1;rounded=0;exitX=0.5;exitY=0;exitDx=0;exitDy=0;entryX=0.5;entryY=1;entryDx=0;entryDy=0;" edge="1" parent="1" source="Ytk9a4cfi9C-d5oDtsvV-1" target="Ytk9a4cfi9C-d5oDtsvV-6">
          <mxGeometry width="50" height="50" relative="1" as="geometry">
            <mxPoint x="360" y="270" as="sourcePoint" />
            <mxPoint x="360" y="290" as="targetPoint" />
          </mxGeometry>
        </mxCell>
        <mxCell id="Ytk9a4cfi9C-d5oDtsvV-84" value="m" style="text;html=1;strokeColor=none;fillColor=none;align=center;verticalAlign=middle;whiteSpace=wrap;rounded=0;" vertex="1" parent="1">
          <mxGeometry x="360" y="240" width="60" height="30" as="geometry" />
        </mxCell>
        <mxCell id="Ytk9a4cfi9C-d5oDtsvV-85" value="n" style="text;html=1;strokeColor=none;fillColor=none;align=center;verticalAlign=middle;whiteSpace=wrap;rounded=0;" vertex="1" parent="1">
          <mxGeometry x="227" y="240" width="60" height="30" as="geometry" />
        </mxCell>
        <mxCell id="Ytk9a4cfi9C-d5oDtsvV-86" value="m" style="text;html=1;strokeColor=none;fillColor=none;align=center;verticalAlign=middle;whiteSpace=wrap;rounded=0;" vertex="1" parent="1">
          <mxGeometry x="425" y="260" width="60" height="30" as="geometry" />
        </mxCell>
        <mxCell id="Ytk9a4cfi9C-d5oDtsvV-87" value="n" style="text;html=1;strokeColor=none;fillColor=none;align=center;verticalAlign=middle;whiteSpace=wrap;rounded=0;" vertex="1" parent="1">
          <mxGeometry x="425" y="320" width="60" height="30" as="geometry" />
        </mxCell>
        <mxCell id="Ytk9a4cfi9C-d5oDtsvV-88" value="m" style="text;html=1;strokeColor=none;fillColor=none;align=center;verticalAlign=middle;whiteSpace=wrap;rounded=0;" vertex="1" parent="1">
          <mxGeometry x="454" y="220" width="60" height="30" as="geometry" />
        </mxCell>
        <mxCell id="Ytk9a4cfi9C-d5oDtsvV-89" value="n" style="text;html=1;strokeColor=none;fillColor=none;align=center;verticalAlign=middle;whiteSpace=wrap;rounded=0;" vertex="1" parent="1">
          <mxGeometry x="570" y="220" width="60" height="30" as="geometry" />
        </mxCell>
        <mxCell id="Ytk9a4cfi9C-d5oDtsvV-90" value="m" style="text;html=1;strokeColor=none;fillColor=none;align=center;verticalAlign=middle;whiteSpace=wrap;rounded=0;" vertex="1" parent="1">
          <mxGeometry x="635" y="260" width="60" height="30" as="geometry" />
        </mxCell>
        <mxCell id="Ytk9a4cfi9C-d5oDtsvV-91" value="n" style="text;html=1;strokeColor=none;fillColor=none;align=center;verticalAlign=middle;whiteSpace=wrap;rounded=0;" vertex="1" parent="1">
          <mxGeometry x="635" y="320" width="60" height="30" as="geometry" />
        </mxCell>
        <mxCell id="Ytk9a4cfi9C-d5oDtsvV-92" style="edgeStyle=none;rounded=0;orthogonalLoop=1;jettySize=auto;html=1;exitX=0.5;exitY=1;exitDx=0;exitDy=0;startArrow=block;startFill=1;endArrow=none;endFill=0;" edge="1" parent="1" source="Ytk9a4cfi9C-d5oDtsvV-35" target="Ytk9a4cfi9C-d5oDtsvV-35">
          <mxGeometry relative="1" as="geometry" />
        </mxCell>
      </root>
    </mxGraphModel>
  </diagram>
</mxfile>
